# xmcd
#
# Track frame offsets: 
#        150
#        18176
#        38336
#        58268
#        78062
#        98349
#        116823
#        140419
#        165856
#        195207
#
# Disc length: 2662 seconds
#
# Revision: 0
# Processed by: cddbd v1.5.2PL0 Copyright (c) Steve Scherf et al.
# Submitted via: ExactAudioCopy v0.99pb5
#
DISCID=640a640a
DTITLE=ADULT. - The Way Things Fall
DYEAR=2013
DGENRE=Electronic
TTITLE0=Heartbreak
TTITLE1=Idle (Second Thoughts)
TTITLE2=Tonight We Fall
TTITLE3=New Frustration
TTITLE4=Love Lies
TTITLE5=At The End Of It All
TTITLE6=Nothing Lasts
TTITLE7=A Day Like Forever
TTITLE8=We Will Rest
TTITLE9=Rise and Fall
EXTD=
EXTT0=
EXTT1=
EXTT2=
EXTT3=
EXTT4=
EXTT5=
EXTT6=
EXTT7=
EXTT8=
EXTT9=
PLAYORDER=
